<svg xmlns="http://www.w3.org/2000/svg" viewBox="0 0 59.73 73.85"><defs><style>.cls-1{fill:#fff;}</style></defs><g id="Layer_2" data-name="Layer 2"><g id="Layer_1-2" data-name="Layer 1"><path class="cls-1" d="M28.81,26.11V72.89a1,1,0,0,0,1,1h28a1,1,0,0,0,0-1.92H1.9a1,1,0,0,0,0,1.92H57.81a1,1,0,0,0,0-1.92H37.63c-2.6,0-5.21.07-7.81,0,1.91,0,.39,1.6.91-.32a15.93,15.93,0,0,0,0-3.78V26.11a1,1,0,0,0-1.92,0Z"/><path class="cls-1" d="M38.58,51.07,11.83,70.94c-1,.72,0,2.39,1,1.66L39.55,52.73c1-.73,0-2.4-1-1.66Z"/><path class="cls-1" d="M47.24,70.94,20.65,51.07c-1-.74-1.95.93-1,1.66L46.27,72.6c1,.74,1.95-.93,1-1.66Z"/><path class="cls-1" d="M28.85,26.37l18.26,46c.45,1.14,2.31.64,1.85-.51l-18.26-46c-.45-1.13-2.31-.64-1.85.52Z"/><path class="cls-1" d="M28.85,25.85l-18.27,46c-.45,1.15,1.41,1.65,1.86.51l18.26-46c.46-1.15-1.4-1.65-1.85-.52Z"/><path class="cls-1" d="M32.34,21.87c-.18,3.18-5,3.2-5,0s4.79-3.19,5,0c.06,1.23,2,1.23,1.92,0a4.41,4.41,0,1,0-4.59,4.39,4.49,4.49,0,0,0,4.59-4.39C34.33,20.63,32.4,20.63,32.34,21.87Z"/><path class="cls-1" d="M47.07,2.11C62,12,60.94,32.65,46.59,42.58c-1,.7-.05,2.37,1,1.66C63.11,33.47,64.28,11.24,48,.45c-1-.69-2,1-1,1.66Z"/><path class="cls-1" d="M43.2,10.57c8.55,6,8.07,17.52-.28,23.55-.58.41,0,1.39.56,1,9.05-6.52,9.64-18.92.28-25.47-.59-.42-1.15.55-.56,1Z"/><path class="cls-1" d="M12.48,42.29C-2.37,32.23-1.1,11.63,13.33,1.83c1-.69.06-2.36-1-1.66C-3.29,10.8-4.63,33,11.51,44c1,.7,2-1,1-1.66Z"/><path class="cls-1" d="M16.43,33.87c-8.5-6.07-7.91-17.59.5-23.55.58-.41,0-1.38-.57-1-9.1,6.45-9.79,18.84-.49,25.47.58.42,1.14-.55.56-1Z"/></g></g></svg>