<svg xmlns="http://www.w3.org/2000/svg" viewBox="0 0 75.78 72.52"><defs><style>.cls-1,.cls-2,.cls-3{fill:none;}.cls-1,.cls-2,.cls-3,.cls-5{stroke:#fff;stroke-miterlimit:10;}.cls-1{stroke-width:2.21px;}.cls-2{stroke-width:0.98px;}.cls-3{stroke-width:1.38px;}.cls-4,.cls-5{fill:#fff;}</style></defs><g id="Layer_2" data-name="Layer 2"><g id="Layer_1-2" data-name="Layer 1"><polygon class="cls-1" points="71.72 13.85 73.69 14.59 74.67 16.07 74.67 18.28 74.67 61.83 73.94 63.31 73.2 64.29 4.31 64.29 2.58 64.29 1.11 62.32 1.11 17.54 1.6 15.82 3.08 14.59 4.31 13.85 71.72 13.85"/><rect class="cls-1" x="8.49" y="19.02" width="47.98" height="40.11" rx="2.95"/><line class="cls-2" x1="35.55" y1="2.78" x2="31" y2="11.02"/><ellipse class="cls-3" cx="23.33" cy="1.55" rx="0.69" ry="0.86"/><ellipse class="cls-3" cx="36.12" cy="1.55" rx="0.69" ry="0.86"/><polyline class="cls-2" points="33.95 12.74 33.22 11.76 31 11.27 28.3 11.02 23.87 2.66"/><polyline class="cls-2" points="25.34 12.74 25.84 12.01 27.07 11.52 28.3 11.52"/><path class="cls-4" d="M31.83,14.24l1-.2c1.62-.31,1.25-2.94-.39-2.87a31.31,31.31,0,0,0-3.5.19c-.42.07-.81.24-1.23.29s-1.09,0-1.65.13c-1.86.32-1.07,3.15.78,2.83.48-.09,1,0,1.46-.08s.68-.2,1-.27a21.46,21.46,0,0,1,3.11-.16l-.39-2.88-1,.19c-1.85.36-1.07,3.18.78,2.83Z"/><path class="cls-4" d="M26.27,14.64a1.47,1.47,0,0,0,0-2.93,1.47,1.47,0,0,0,0,2.93Z"/><path class="cls-4" d="M31.63,12.81v.06a1.07,1.07,0,0,0,.12.56,1.4,1.4,0,0,0,.78.78,1.07,1.07,0,0,0,.56.12l.39-.05a1.39,1.39,0,0,0,.65-.38l.23-.29a1.49,1.49,0,0,0,.2-.74v-.06a1.14,1.14,0,0,0-.13-.57,1.29,1.29,0,0,0-.77-.77,1.14,1.14,0,0,0-.57-.13l-.39.05a1.5,1.5,0,0,0-.64.38l-.23.3a1.47,1.47,0,0,0-.2.74Z"/><path class="cls-4" d="M26.2,11.65h-.12a1.67,1.67,0,0,0-1,.43,1,1,0,0,0-.31.47,1.07,1.07,0,0,0-.12.56l.05.39a1.39,1.39,0,0,0,.38.65l.29.23a1.49,1.49,0,0,0,.74.2h.12a1.67,1.67,0,0,0,1-.43,1.12,1.12,0,0,0,.3-.47,1.11,1.11,0,0,0,.13-.57l-.05-.39a1.5,1.5,0,0,0-.38-.64l-.3-.23a1.47,1.47,0,0,0-.74-.2Z"/><polyline class="cls-5" points="64.83 65.28 64.83 70.69 61.14 65.28"/><polyline class="cls-5" points="14.39 65.28 11.2 70.69 11.2 65.28"/><line class="cls-2" x1="60.9" y1="48.05" x2="72.46" y2="48.05"/><line class="cls-2" x1="61.02" y1="50.64" x2="72.58" y2="50.64"/><line class="cls-2" x1="61.02" y1="53.34" x2="72.58" y2="53.34"/><line class="cls-2" x1="61.02" y1="55.8" x2="72.58" y2="55.8"/><circle class="cls-2" cx="66.8" cy="39.69" r="3.08"/><circle class="cls-2" cx="66.8" cy="26.65" r="3.08"/></g></g></svg>